<svg version="1.1" xmlns="http://www.w3.org/2000/svg" style="display: block;" viewBox="0 0 2048 610" width="1024" height="305" preserveAspectRatio="none">
<path transform="translate(0,0)" fill="rgb(0,0,0)" d="M 1055.72 246.162 C 1088.63 244.731 1119.67 253.302 1138.44 282.824 L 1116.79 305.159 C 1107.02 292.49 1090.68 278.155 1074.41 276.612 C 1048.3 274.136 1029.2 292.504 1026.35 317.608 C 1024.99 330.349 1028.72 343.111 1036.74 353.109 C 1043.5 361.464 1053.33 366.744 1064.03 367.76 C 1090.91 370.342 1105.56 350.426 1121 332.555 C 1140.09 310.446 1157.09 283.333 1178.82 264.298 C 1209.39 237.527 1269.01 238.986 1295.67 271.677 C 1296.27 272.311 1296.85 272.965 1297.41 273.637 C 1343.2 328.328 1295.52 409.136 1225.71 399.781 C 1188.33 394.772 1172.15 373.226 1150.21 346.286 C 1133.09 367.789 1115.8 390.567 1087.71 397.773 C 1048.17 408.351 1002.05 384.374 993.506 342.831 C 983.314 293.29 1006.56 257.601 1055.72 246.162 z M 1226.22 367.866 C 1254.2 368.99 1277.77 356.166 1278.83 325.516 C 1279.36 312.672 1274.75 300.147 1266.02 290.713 C 1256.69 280.789 1244.4 276.495 1231.01 276.113 C 1229.46 276.076 1227.9 276.121 1226.36 276.25 C 1197.76 282.433 1186.8 298.797 1170.04 321.157 C 1185.42 341.223 1200.41 361.614 1226.22 367.866 z"/>
<path transform="translate(0,0)" fill="rgb(0,0,0)" d="M 391.45 190.527 C 417.166 191.307 444.885 186.997 469.489 196.777 C 500.845 209.243 511.451 249.631 498.876 279.155 C 491.05 297.529 480.328 305.186 462.424 312.49 C 477.397 334.108 490.252 360.026 504.566 382.25 C 508.072 387.693 510.597 392.66 514.669 397.922 C 500.344 398.223 486.015 398.274 471.688 398.074 C 467.68 392.424 463.617 384.63 460.18 378.471 C 448.628 358.455 437.193 338.372 425.876 318.222 C 414.219 318.48 402.557 318.534 390.898 318.383 C 391.992 342.328 391.315 373.632 391.252 398 C 379.241 398.162 366.979 398.069 354.948 398.093 L 354.965 190.826 C 366.39 190.402 379.877 190.609 391.45 190.527 z M 390.921 287.538 C 412.186 288.239 438.576 291.518 455.68 278.15 C 462.912 269.778 465.729 262.345 465.012 251.2 C 462.528 212.605 417.243 223.835 390.975 221.88 L 390.921 287.538 z"/>
<path transform="translate(0,0)" fill="rgb(0,0,0)" d="M 1407.72 246.228 C 1415.04 245.816 1424.32 245.383 1431.44 246.647 C 1524.14 263.105 1503.71 415.053 1406.64 399.061 C 1391.72 396.603 1380.7 391.242 1371.9 378.749 L 1372.04 404.25 L 1371.97 452.944 C 1360.78 452.543 1349.06 452.689 1337.82 452.668 L 1338.04 250.087 C 1349.17 249.81 1361.01 250.074 1372.19 250.137 C 1371.3 255.95 1371.15 263.453 1370.85 269.443 C 1381.71 254.407 1390.74 251.416 1407.72 246.228 z M 1421.22 367.92 C 1433.28 365.024 1441.99 359.87 1448.69 348.963 C 1455.49 337.703 1457.54 324.199 1454.39 311.427 C 1448.62 287.542 1431.23 274.875 1406.95 276.196 C 1376.97 284.409 1366.55 309.747 1373.66 339.509 C 1379.03 361.977 1399.91 369.218 1421.22 367.92 z"/>
<path transform="translate(0,0)" fill="rgb(0,0,0)" d="M 580.808 246.153 C 584.929 246.018 589.051 245.931 593.174 245.892 C 628.907 245.661 657.019 266.602 664.184 302.136 C 666.324 312.75 666.107 321.259 666.112 332.074 L 554.942 332.264 C 555.739 335.54 556.557 339.631 557.72 342.741 C 569.873 375.259 609.35 378.825 628.647 350.966 L 644.5 350.846 C 652.468 350.957 657.585 350.828 665.512 350.094 C 663.222 355.289 661.003 360.027 658.333 365.071 C 639.114 401.379 591.219 409.33 556.698 390.787 C 510.828 366.148 507.916 292.285 547.696 260.652 C 558.577 252 567.819 249.608 580.808 246.153 z M 597.5 306.814 C 608.016 306.778 620.51 307.053 630.868 306.543 C 624.979 285.469 614.796 275.501 592.496 274.266 C 569.55 277.924 563.356 285.846 555.911 307.27 C 570.034 306.652 583.375 306.731 597.5 306.814 z"/>
<path transform="translate(0,0)" fill="rgb(0,0,0)" d="M 1624.84 246.168 C 1628.96 246.044 1633.07 245.963 1637.18 245.924 C 1654.23 245.806 1671.65 250.152 1684.05 262.449 C 1703.62 281.849 1700.2 312.978 1700.15 338.344 L 1700 397.992 C 1689.53 398.208 1678.74 398.076 1668.24 398.079 L 1668.01 378.331 C 1648.86 400.571 1614.84 408.268 1589.86 390.66 C 1585.37 387.495 1582.04 383.235 1578.57 379.02 C 1573.9 371.531 1571.55 362.823 1571.84 354 C 1573.16 306.143 1631.13 305.529 1666.15 306.372 C 1666.16 300.725 1666.25 296.096 1663.93 290.852 C 1660.98 284.15 1655.42 278.94 1648.54 276.421 C 1638.74 272.758 1624.86 273.903 1616.65 281.398 C 1613.63 284.15 1609.69 293.648 1607.04 294.874 C 1602.07 295.096 1580.86 295.627 1578.31 293.653 C 1577.52 287.876 1580.49 276.413 1583.65 271.321 C 1594.44 253.949 1606.67 250.673 1624.84 246.168 z M 1639.01 369.81 C 1660.84 365.56 1665.86 349.942 1667.14 330.188 C 1658.47 330.13 1646.89 329.731 1638.45 330.23 C 1629.14 331.868 1615.96 334.138 1611.14 342.901 C 1598.48 365.922 1621.87 373.206 1639.01 369.81 z"/>
<path transform="translate(0,0)" fill="rgb(0,0,0)" d="M 731.067 246.151 C 768.18 245.073 797.559 250.86 800.762 293.535 C 790.689 293.974 779.662 293.897 769.511 294.026 C 767.195 285.599 761.303 277.226 752.479 275.975 C 708.266 269.706 707.057 303.473 752.393 308.153 C 776.494 310.641 808.874 323 808.4 352.514 C 807.9 383.604 780.445 399.04 751.967 400.112 C 722.816 401.243 689.966 394.125 681.48 360.724 C 680.585 357.201 679.69 354.349 681.187 351.036 C 685.276 349.379 706.407 349.93 712.427 349.948 C 719.593 369.475 736.963 372.133 755.963 369.946 C 763.747 369.05 775.929 363.116 773.153 353.514 C 768.327 338.979 741.383 336.789 726.659 333.463 C 694.037 326.094 674.39 303.317 690.711 269.859 C 697.646 255.644 715.364 249.989 731.067 246.151 z"/>
<path transform="translate(0,0)" fill="rgb(0,0,0)" d="M 857.52 214.5 C 862.165 213.999 871.104 214.118 876.067 214.031 L 875.996 250.055 L 909.042 250.015 C 908.782 258.988 908.974 268.912 908.957 277.963 L 876.095 278.013 C 875.963 302.785 874.504 329.757 877.27 354.147 C 879.18 370.979 896.819 368.019 907.959 365.213 L 908.349 398.035 L 896.708 398.079 C 850.287 402.946 838.355 381.449 839.898 338.348 C 840.578 319.345 840.12 297.228 839.882 278.122 C 834.268 278.615 823.327 278.158 817.313 278.05 C 817.678 270.936 817.8 256.801 817.042 250.087 C 824.612 249.993 832.411 250.107 840.003 250.121 L 840.097 215.235 L 857.52 214.5 z"/>
<path transform="translate(0,0)" fill="rgb(0,0,0)" d="M 934.076 250.121 L 968.494 249.71 C 968.953 262.167 969.659 393.852 967.778 398.06 C 959.746 398.199 942.69 398.821 935.325 397.354 C 932.511 394.089 933.993 266.572 934.076 250.121 z"/>
<path transform="translate(0,0)" fill="rgb(0,0,0)" d="M 1514.19 250.074 C 1525.2 249.784 1537.04 249.985 1548.12 249.969 L 1548.04 398.011 C 1536.73 398.152 1525.42 398.118 1514.11 397.911 C 1513.59 350.076 1513.25 297.773 1514.19 250.074 z"/>
<path transform="translate(0,0)" fill="rgb(0,0,0)" d="M 944.955 189.189 C 956.387 185.924 968.298 192.562 971.534 204.003 C 974.77 215.444 968.101 227.338 956.652 230.545 C 945.245 233.74 933.402 227.1 930.178 215.701 C 926.954 204.301 933.563 192.442 944.955 189.189 z"/>
<path transform="translate(0,0)" fill="rgb(0,0,0)" d="M 1527.12 188.852 C 1534.66 187.237 1542.49 189.799 1547.62 195.559 C 1552.74 201.32 1554.38 209.392 1551.9 216.695 C 1549.42 223.998 1543.21 229.406 1535.64 230.857 C 1524.1 233.067 1512.94 225.579 1510.6 214.068 C 1508.27 202.557 1515.63 191.311 1527.12 188.852 z"/>
</svg>